<?xml version="1.0" standalone="no"?>
<!DOCTYPE svg PUBLIC "-//W3C//DTD SVG 20010904//EN"
 "http://www.w3.org/TR/2001/REC-SVG-20010904/DTD/svg10.dtd">
<svg version="1.0" xmlns="http://www.w3.org/2000/svg"
 width="700.000000pt" height="700.000000pt" viewBox="0 0 700.000000 700.000000"
 preserveAspectRatio="xMidYMid meet">
<metadata>
Created by potrace 1.11, written by Peter Selinger 2001-2013
</metadata>
<g transform="translate(0.000000,700.000000) scale(0.100000,-0.100000)"
fill="#000000" stroke="none">
<path d="M4460 6413 c-13 -3 -45 -13 -71 -23 -26 -11 -50 -17 -53 -14 -3 2 -4
1 -2 -2 3 -3 -19 -25 -47 -48 -72 -59 -113 -116 -137 -192 -23 -77 -21 -86 62
-191 27 -34 46 -63 42 -63 -14 0 15 -24 33 -27 10 -2 58 11 106 28 84 30 89
30 107 14 11 -10 17 -21 15 -25 -2 -4 12 -29 33 -55 l37 -48 -110 -102 c-60
-57 -114 -101 -119 -98 -5 4 -6 2 -3 -4 3 -5 -14 -26 -38 -46 l-44 -37 -16 22
c-8 13 -18 22 -20 21 -3 -2 -8 -3 -12 -2 -5 1 -18 0 -30 0 -32 -3 -35 13 -8
39 14 13 25 27 25 31 0 7 -97 128 -148 183 -15 17 -25 35 -24 40 2 6 1 8 -3 5
-3 -4 -18 4 -33 18 -15 14 -41 32 -59 39 -29 12 -38 12 -88 -7 -30 -11 -55
-25 -55 -31 0 -5 -8 -7 -17 -4 -10 4 -14 4 -11 1 4 -4 -9 -27 -28 -52 -19 -24
-34 -49 -34 -53 0 -5 40 -70 90 -144 83 -125 94 -136 145 -162 40 -19 62 -37
75 -63 11 -20 28 -47 39 -61 l20 -25 -156 -157 -157 -157 -29 25 c-16 14 -36
22 -45 19 -8 -3 -21 0 -28 6 -11 9 -4 22 37 69 28 33 49 63 48 69 -10 28 -163
200 -187 209 -57 23 -116 33 -151 27 -60 -10 -137 -61 -190 -125 -92 -111 -94
-126 -19 -240 80 -123 83 -125 191 -126 50 -1 93 -6 95 -12 1 -5 19 -36 38
-68 l35 -58 -160 -159 -161 -160 -27 27 c-16 16 -34 25 -45 23 -9 -3 -22 1
-29 9 -9 11 -3 23 30 59 22 24 41 48 41 53 0 12 -39 63 -92 118 -25 27 -58 64
-73 81 -18 23 -44 38 -82 49 -61 18 -100 14 -156 -16 -21 -11 -42 -18 -48 -15
-5 4 -8 1 -7 -7 2 -7 -4 -12 -12 -10 -8 2 -12 0 -8 -4 4 -4 -17 -33 -47 -66
-76 -81 -75 -98 13 -227 37 -55 78 -105 91 -111 12 -6 51 -13 85 -17 68 -6 96
-17 96 -37 0 -7 13 -33 30 -57 16 -24 30 -48 30 -53 0 -5 -71 -80 -158 -167
l-159 -158 -20 21 c-11 11 -36 23 -54 27 -23 5 -35 13 -37 26 -7 51 -14 67
-37 87 -13 11 -22 25 -19 30 3 4 1 8 -5 8 -6 0 -45 42 -87 93 -42 50 -86 105
-99 120 l-24 28 -38 -20 c-56 -29 -125 -77 -125 -87 0 -5 -4 -19 -9 -32 -14
-37 -12 -43 44 -125 28 -43 57 -86 62 -95 20 -35 99 -137 114 -149 10 -7 20
-8 27 -2 8 6 17 -2 29 -28 10 -21 30 -52 46 -68 l29 -31 -169 -168 -168 -168
-29 27 c-15 14 -35 24 -44 22 -16 -4 -36 11 -35 28 0 6 24 47 53 92 28 45 52
88 52 96 0 8 -8 23 -17 34 -10 11 -47 54 -82 96 -71 83 -91 92 -168 77 -102
-19 -189 -60 -248 -116 -22 -21 -44 -37 -50 -35 -5 1 -7 -1 -3 -4 4 -4 -6 -26
-22 -49 -15 -23 -36 -66 -46 -95 -15 -46 -15 -58 -3 -94 7 -23 13 -48 12 -54
0 -7 4 -10 10 -6 6 4 8 0 4 -11 -4 -10 -3 -15 3 -11 5 3 14 -5 21 -17 7 -13
27 -43 46 -67 18 -25 31 -51 28 -58 -3 -9 0 -11 7 -7 7 4 26 9 42 11 16 2 37
9 45 17 9 7 40 25 70 40 l54 27 16 -23 c24 -34 40 -75 33 -84 -4 -4 -2 -5 3
-2 6 3 18 -4 27 -17 17 -22 16 -24 -66 -111 -177 -190 -204 -233 -228 -366
-15 -84 3 -173 76 -376 163 -454 170 -506 104 -690 -56 -155 -383 -786 -402
-775 -5 3 -6 1 -2 -5 4 -6 -58 -132 -137 -279 -145 -270 -307 -580 -307 -589
0 -2 367 -3 816 -2 l815 3 158 310 c239 472 251 492 291 541 45 55 86 170 95
264 13 137 66 245 172 348 130 126 270 185 438 186 112 0 168 -17 338 -100
141 -69 185 -80 265 -67 62 11 71 16 114 62 60 66 141 209 197 351 97 248 156
447 206 695 77 386 99 565 130 1069 9 137 20 283 25 325 11 87 39 173 53 164
6 -3 7 -2 4 4 -8 13 46 86 80 109 24 15 47 17 174 15 152 -3 205 4 379 46 122
29 225 74 302 130 79 59 188 180 231 259 50 89 102 247 118 352 21 148 0 358
-53 545 -37 131 -139 297 -247 401 -22 22 -37 44 -34 50 3 6 3 8 -1 4 -4 -4
-35 13 -67 37 -109 80 -260 140 -390 155 -132 15 -249 -4 -454 -72 -110 -36
-168 -69 -284 -158 -66 -51 -91 -65 -95 -55 -7 20 -66 55 -81 49 -26 -10 -22
23 7 56 79 94 93 138 58 182 -10 14 -16 29 -12 32 4 4 2 6 -3 4 -6 -1 -37 25
-71 60 l-61 62 -59 -1 c-32 -1 -70 -4 -84 -6z"/>
</g>
</svg>
